<svg xmlns="http://www.w3.org/2000/svg" width="27" height="27.724" viewBox="0 0 27 27.724">
  <path id="Path_161" data-name="Path 161" d="M11.333,29,3.768,24.744A1.593,1.593,0,0,1,3,23.347V6.528A1.614,1.614,0,0,1,3.659,5.2,1.256,1.256,0,0,1,5.01,5.131l6.324,3.556m0,20.313,8.333-4.687M11.333,29V8.687m8.333,15.625,6.324,3.556a1.256,1.256,0,0,0,1.351-.068A1.614,1.614,0,0,0,28,26.472V9.653a1.593,1.593,0,0,0-.768-1.4L19.667,4m0,20.313V4m0,0L11.333,8.687" transform="translate(-2 -2.638)" fill="none" stroke="#fff" stroke-linecap="round" stroke-linejoin="round" stroke-width="2"/>
</svg>
